<?xml version="1.0" encoding="UTF-8" standalone="no"?>
<svg
   version="1.1"
   width="424.82495"
   height="158.21259"
   id="svg32"
   sodipodi:docname="logo.svg"
   xml:space="preserve"
   inkscape:version="1.2.2 (b0a8486, 2022-12-01)"
   inkscape:export-filename="sample-export.svg"
   inkscape:export-xdpi="96"
   inkscape:export-ydpi="96"
   xmlns:inkscape="http://www.inkscape.org/namespaces/inkscape"
   xmlns:sodipodi="http://sodipodi.sourceforge.net/DTD/sodipodi-0.dtd"
   xmlns="http://www.w3.org/2000/svg"
   xmlns:svg="http://www.w3.org/2000/svg"><defs
     id="defs36" /><sodipodi:namedview
     id="namedview34"
     pagecolor="#505050"
     bordercolor="#eeeeee"
     borderopacity="1"
     inkscape:showpageshadow="0"
     inkscape:pageopacity="0"
     inkscape:pagecheckerboard="0"
     inkscape:deskcolor="#505050"
     showgrid="false"
     inkscape:zoom="0.76625"
     inkscape:cx="184.01305"
     inkscape:cy="191.84339"
     inkscape:window-width="1366"
     inkscape:window-height="710"
     inkscape:window-x="0"
     inkscape:window-y="32"
     inkscape:window-maximized="1"
     inkscape:current-layer="svg32" /><path
     style="fill:#ffffff;fill-opacity:1;stroke:none;stroke-width:0.5;stroke-dasharray:none;stroke-dashoffset:0;stroke-opacity:1"
     d="m 12.427023,5.057283 h 7.31383 4.32181 c 1.28125,0 3.10173,0.30751 4.24601,-0.39196 1.57114,-0.96077 1.22174,-3.38231 -0.27627,-4.20278997 -1.29421,-0.70877 -3.21176,-0.39195 -4.63464,-0.39195 h -10.30585 c -1.51795,0 -3.6419496,-0.32081 -4.8424196,0.83577 C 7.0603334,2.051633 7.4403234,4.231813 7.4403234,5.722173 v 10.6383 c 0,1.39594 -0.33278,3.35106 0.39195,4.61004 2.6479396,4.59973 4.5947496,-2.29521 4.5947496,-4.27759 v -4.32181 -7.31383 m 113.031917,0 v 7.31383 4.32181 c 0,1.98238 1.9468,8.87732 4.59474,4.27759 0.72474,-1.25898 0.39196,-3.2141 0.39196,-4.61004 v -10.6383 c 0,-1.49036 0.37998,-3.67054 -0.80918,-4.81581997 -1.20046,-1.15658 -3.32447,-0.83577 -4.84242,-0.83577 h -10.30585 c -1.42287,0 -3.34042,-0.31682 -4.63464,0.39195 -1.49801,0.82047997 -1.84741,3.24201997 -0.27626,4.20278997 1.14428,0.69947 2.96476,0.39196 4.24601,0.39196 h 4.32181 7.31383 m -77.127667,79.45479 c -1.84275,2.58078 -3.32978,5.15093 -5.98404,7.05153 -5.01163,3.58943 -12.24967,3.88397 -17.95213,6.05485 -10.18716,3.878657 -19.8144896,10.960767 -23.0315796,21.800527 -2.248,7.57381 -1.16788,15.878 -0.60173,23.60373 0.36802,5.01728 0.82181,9.61436 5.35007,12.70412 2.95711,2.01795 6.5535196,1.92354 9.9720696,1.92354 h 14.96011 61.835107 c 11.02327,0 22.9857,1.32679 33.90957,-0.0961 4.35905,-0.56782 8.04954,-3.30352 9.44216,-7.5502 1.35804,-4.14162 1.02028,-9.3115 1.20911,-13.63032 0.17752,-4.05053 0.72307,-8.23969 0.2244,-12.30053 -1.36669,-11.12733 -9.19548,-19.23105 -18.85439,-24.182507 -6.99136,-3.58378 -15.73438,-3.75732 -22.27394,-7.80951 -2.69016,-1.66689 -6.18018,-4.91855 -6.76363,-8.23404 -0.33344,-1.89562 2.32514,-4.21144 3.34143,-5.6516 3.04687,-4.31848 5.56516,-9.03425 7.4744,-13.96277 2.68118,-6.92088 4.58444,-14.46675 3.87001,-21.94149 -1.43584,-15.02826 -12.75332,-28.65558 -27.869014,-31.49568 -4.63597,-0.87101 -9.30784,-1.05419 -13.96276,-0.21509 -3.91988,0.70678 -7.859713,1.9498 -11.303203,3.98637 -20.19448,11.94282 -21.76329,36.83876 -12.05019,56.31483 2.3371,4.68617 4.90292,10.26928 9.05817,13.63032 m 16.289903,-69.38529 c 18.391954,-2.38996 34.231374,11.55851 35.169874,29.82414 0.47108,9.16954 -3.75698,19.23171 -8.37467,26.92819 -5.01596,8.36004 -11.729714,15.67055 -21.808504,16.86004 -12.344083,1.45645 -21.692493,-10.12566 -26.071813,-20.18451 -7.63896,-17.54488 -8.42852,-40.11802 11.1117,-50.27128 3.05419,-1.5871 6.554863,-2.7121 9.973413,-3.15658 m -55.7882326,29.7387 c -2.64595,1.15226 -0.6762,5.13763 1.9135596,4.15525 2.96011,-1.12267 0.90425,-5.38231 -1.9135596,-4.15525 m 117.9920166,0.0951 c -2.60007,1.45146 -0.2889,5.3115 2.25465,3.91888 2.66922,-1.4611 0.378,-5.38863 -2.25465,-3.91888 M 12.427023,87.504113 v -7.31383 -4.32181 c 0,-1.34242 0.24501,-3.05751 -0.43817,-4.27759 -0.90392,-1.61403 -3.2503296,-1.61736 -4.1565796,-0.008 -0.71742,1.27427 -0.39195,3.21077 -0.39195,4.61802 v 10.6383 c 0,1.47905 -0.38365,3.64262 0.80917,4.76961 1.24003,1.17188 3.2842396,0.88198 4.8424196,0.88198 3.95712,0 11.41988,1.43883 14.94049,-0.43816 1.50599,-0.80286 1.84242,-3.19881 0.27627,-4.15659 -1.14428,-0.69946 -2.96476,-0.39195 -4.24601,-0.39195 h -4.32181 -7.31383 m 113.031917,0 h -7.31383 -4.32181 c -1.28125,0 -3.10173,-0.30751 -4.24601,0.39195 -1.56616,0.95778 -1.22972,3.35373 0.27626,4.15659 3.52061,1.87699 10.98338,0.43816 14.94049,0.43816 1.55818,0 3.6024,0.2899 4.84242,-0.88198 1.19282,-1.12699 0.80918,-3.29056 0.80918,-4.76961 v -10.6383 c 0,-1.40725 0.32546,-3.34375 -0.39196,-4.61802 -0.90625,-1.60938 -3.25266,-1.60605 -4.15658,0.008 -0.68318,1.22008 -0.43816,2.93517 -0.43816,4.27759 v 4.32181 7.31383 m -39.89362,-0.66489 c 0.9734,1.65026 4.8863,5.57347 4.68052,7.31383 -0.21077,1.78058 -3.15127,3.78989 -4.34807,4.9867 -4.04488,4.044877 -7.943484,8.228717 -11.966754,12.300527 -1.30519,1.32114 -3.1393,4.48305 -5.32048,4.17985 -2.36636,-0.32879 -4.44647,-3.91024 -5.9877,-5.50964 -5.112703,-5.30585 -9.801203,-11.025927 -14.956453,-16.289887 v -0.33245 l 3.98936,-5.31915 c 3.42853,0.80519 6.47773,3.37866 9.973413,4.41456 9.35339,2.77261 16.25631,-0.96176 23.936164,-5.74434 M 66.615856,120.0839 c 0,4.54322 -0.0236,9.0871 3.3e-4,13.63032 0.008,1.56183 0.22773,3.89095 2.3268,3.89095 2.09907,0 2.31848,-2.32912 2.32679,-3.89095 0.0206,-3.86869 -0.97407,-9.18617 0.10605,-12.89595 0.63165,-2.16921 4.60539,-4.78058 6.21078,-6.38597 5.288234,-5.28823 10.263624,-12.46443 16.302844,-16.834767 1.75898,-1.27294 8.3903,1.69049 10.62534,2.24933 11.8115,2.951797 25.38663,9.800867 27.98936,22.896607 1.3012,6.54721 0.0948,14.02826 -0.36669,20.6117 -0.20512,2.93019 -0.0977,6.14927 -2.70246,8.09907 -2.33145,1.74535 -5.55984,1.20944 -8.29787,1.20944 H 102.18766 34.036063 16.748833 c -2.77294,0 -5.92554,0.48106 -8.2978796,-1.26329 -4.24168,-3.11902 -3.33776,-12.95113 -3.33776,-17.68617 0,-4.68983 -0.376,-9.46742 1.22939,-13.96277 4.1532496,-11.62965 17.3766596,-17.85539 28.6908196,-20.279247 2.46509,-0.52826 5.88797,-2.51663 8.31117,-2.42421 2.25765,0.0858 4.86237,4.216757 6.28657,5.748667 3.68517,3.96277 7.28557,8.00499 10.970753,11.96809 1.83278,1.97074 3.42619,4.31649 6.01396,5.31915 m 1.04654,23.28058 c -2.50831,1.47906 -0.0309,5.47241 2.53458,3.92022 2.54222,-1.5379 0.0741,-5.45845 -2.53458,-3.92022 z"
     id="path4774"
     inkscape:export-filename="../../../../../media/theoyrus/LenovoData/dummy/head-logo.svg"
     inkscape:export-xdpi="33.900002"
     inkscape:export-ydpi="33.900002" /><text
     xml:space="preserve"
     style="font-style:oblique;font-variant:normal;font-weight:600;font-stretch:normal;font-size:64px;font-family:'URW Gothic';-inkscape-font-specification:'URW Gothic, Semi-Bold Oblique';font-variant-ligatures:normal;font-variant-caps:normal;font-variant-numeric:normal;font-variant-east-asian:normal;fill:#ffffff;fill-opacity:1;stroke:none;stroke-width:2;stroke-dasharray:none;stroke-opacity:1"
     x="148.72955"
     y="56.907867"
     id="text4832"><tspan
       sodipodi:role="line"
       id="tspan4830"
       x="148.72955"
       y="56.907867"
       style="font-style:oblique;font-variant:normal;font-weight:600;font-stretch:normal;font-size:64px;font-family:'URW Gothic';-inkscape-font-specification:'URW Gothic, Semi-Bold Oblique';font-variant-ligatures:normal;font-variant-caps:normal;font-variant-numeric:normal;font-variant-east-asian:normal;fill:#ffffff;fill-opacity:1;stroke:none;stroke-width:2;stroke-dasharray:none;stroke-opacity:1">PRESENSI</tspan><tspan
       sodipodi:role="line"
       x="148.72955"
       y="136.90787"
       style="font-style:oblique;font-variant:normal;font-weight:600;font-stretch:normal;font-size:64px;font-family:'URW Gothic';-inkscape-font-specification:'URW Gothic, Semi-Bold Oblique';font-variant-ligatures:normal;font-variant-caps:normal;font-variant-numeric:normal;font-variant-east-asian:normal;fill:#ffffff;fill-opacity:1;stroke:none;stroke-width:2;stroke-dasharray:none;stroke-opacity:1"
       id="tspan4834">WAJAH</tspan></text></svg>
